<?xml version="1.0" encoding="utf-8"?>
<!-- Generator: Adobe Illustrator 16.0.0, SVG Export Plug-In . SVG Version: 6.00 Build 0)  -->
<!DOCTYPE svg PUBLIC "-//W3C//DTD SVG 1.1//EN" "http://www.w3.org/Graphics/SVG/1.1/DTD/svg11.dtd">
<svg version="1.1" id="Layer_3" xmlns="http://www.w3.org/2000/svg" xmlns:xlink="http://www.w3.org/1999/xlink" x="0px" y="0px"
	 width="140px" height="190px" viewBox="0 0 140 190" enable-background="new 0 0 140 190" xml:space="preserve">
<path fill="#375151" d="M137.333,179.322c0,4.716-3.823,8.539-8.539,8.539H10.673c-4.716,0-8.539-3.823-8.539-8.539v-13.521
	c0-4.715,3.823-8.538,8.539-8.538h118.121c4.716,0,8.539,3.823,8.539,8.538V179.322z"/>
<g>
	<path fill="#73A8AE" d="M130.774,2.141H8.694C3.893,2.141,0,6.006,0,10.774v144.97c0,4.77,3.893,8.634,8.694,8.634h122.081
		c4.8,0,8.693-3.864,8.693-8.634V10.774C139.468,6.006,135.574,2.141,130.774,2.141z M124.88,99.982
		c0,4.715-3.823,8.539-8.538,8.539H22.059c-4.716,0-8.539-3.824-8.539-8.539V27.758c0-4.716,3.823-8.539,8.539-8.539h94.283
		c4.715,0,8.538,3.822,8.538,8.539V99.982z"/>
	<path fill="#619093" d="M116.342,19.219H22.059c-4.716,0-8.539,3.822-8.539,8.539v72.224c0,4.715,3.823,8.539,8.539,8.539h94.283
		c4.715,0,8.538-3.824,8.538-8.539V27.758C124.88,23.042,121.057,19.219,116.342,19.219z M120.611,93.02
		c0,4.827-3.891,8.741-8.688,8.741H25.766c-4.799,0-8.688-3.914-8.688-8.741V33.652c0-4.827,3.89-8.741,8.688-8.741h86.157
		c4.798,0,8.688,3.914,8.688,8.741V93.02z"/>
</g>
<rect x="0.356" y="133.782" fill="#375151" width="138.755" height="3.558"/>
<rect x="68.311" y="133.782" fill="#5A8184" width="53.724" height="3.558"/>
<rect x="26.5" y="38.5" fill="#375151" width="4" height="12"/>
</svg>
